Genre:Action | Drama | Thriller
Language:English
 
http://www.imdb.com/title/tt0477080/

Source:1080p.DTS.x264.CHD


Format : Matroska
File size : 1.82 GiB
Duration : 1h 38mn
Overall bit rate : 2 648 Kbps


Video
Format settings, CABAC : Yes
Format settings, ReFrames : 4 frames
Codec ID : V_MPEG4/ISO/AVC
Duration : 1h 38mn
Bit rate : 2 300 Kbps
Width : 1 280 pixels
Height : 544 pixels
Display aspect ratio : 2.35:1
Frame rate mode : Variable
Frame rate : 23.976 fps
Color space : YUV
Chroma subsampling : 4:2:0
Bit depth : 8 bits
Scan type : Progressive
Bits/(Pixel*Frame) : 0.138
Stream size : 1.52 GiB (84%)
Writing library : x264


Audio
ID : 2
Format : AC-3
Format/Info : Audio Coding 3
Mode extension : CM (complete main)
Codec ID : A_AC3
Duration : 1h 38mn
Bit rate mode : Constant
Bit rate : 384 Kbps
Channel(s) : 6 channels
Channel positions : Front: L C R, Side: L R, LFE
Sampling rate : 48.0 KHz
Bit depth : 16 bits
Video delay : -1mn 5s
Stream size : 271 MiB (14%)
Language : English



Plot:
With an unmanned, half-mile-long freight train barreling toward a city, a veteran engineer and a young conductor race against the clock to prevent a catastrophe
 
http://shareimage.org/images/q6gvrskntlcsjs6rk7oo.png
 
http://shareimage.org/images/mp4gxnedmd4vxrnm8u2c.png
 
http://shareimage.org/images/dce9cubfonl8udq6saxf.png
 
http://shareimage.org/images/oulm1md0anjgbuyuro.png
 
http://shareimage.org/images/fqw8po41t7od619qd5b.png
 
http://shareimage.org/images/bklmzhhhanymx11regzo.png

